<?xml version="1.0" encoding="utf-8"?>
<!-- Generator: Adobe Illustrator 24.0.3, SVG Export Plug-In . SVG Version: 6.00 Build 0)  -->
<svg version="1.1" id="Capa_1" xmlns="http://www.w3.org/2000/svg" xmlns:xlink="http://www.w3.org/1999/xlink" x="0px" y="0px"
	 viewBox="0 0 54 54" style="enable-background:new 0 0 54 54;" xml:space="preserve">
<style type="text/css">
	.st0{fill:#FFFFFF;}
	.st1{opacity:0.25;fill:#828282;}
	.st2{opacity:0.4;fill:#828282;}
	.st3{fill:#3CD6D6;}
	.st4{fill:#FFFFFF;stroke:#FFFFFF;stroke-miterlimit:10;}
</style>
<g id="_x38_wVWw1.tif">
	
		<image style="overflow:visible;" width="836" height="488" id="Layer_0_1_" xlink:href="7FB165D367A0A06B.png"  transform="matrix(0.5 0 0 0.5 80.6673 -65.9234)">
	</image>
</g>
<rect x="86.9" y="-148.8" class="st0" width="376.8" height="82.9"/>
<rect x="121.9" y="106.6" class="st1" width="376.8" height="82.9"/>
<rect x="121.9" y="17.4" class="st2" width="376.8" height="82.9"/>
<g>
	<g>
		<path class="st3" d="M27,1L27,1c14.4,0,26,11.6,26,26l0,0c0,14.4-11.6,26-26,26l0,0C12.6,53,1,41.4,1,27l0,0C1,12.6,12.6,1,27,1z"
			/>
		<path class="st3" d="M27,54C12.1,54,0,41.9,0,27S12.1,0,27,0s27,12.1,27,27S41.9,54,27,54z M27,2C13.2,2,2,13.2,2,27
			s11.2,25,25,25s25-11.2,25-25S40.8,2,27,2z"/>
	</g>
	<path class="st4" d="M31.7,40c-0.3,0-0.5-0.1-0.7-0.3L19.5,28.2c-0.7-0.7-0.7-1.8,0-2.4L31,14.3c0.4-0.4,1-0.4,1.4,0s0.4,1,0,1.4
		L21.1,27l11.3,11.3c0.4,0.4,0.4,1,0,1.4C32.2,39.9,32,40,31.7,40z"/>
</g>
<text transform="matrix(1 0 0 1 126.6208 -21.5626)" class="st3" style="font-family:'AppleSDGothicNeo-ExtraBold-KSCpc-EUC-H'; font-size:25.1068px;">왜 사냐건 웃지요. 나를</text>
<text transform="matrix(1 0 0 1 126.6208 -94.923)" class="st3" style="font-family:'AppleSDGothicNeo-ExtraBold-KSCpc-EUC-H'; font-size:25.1068px;">왜 사냐건 웃지요. 나를</text>
<g id="ghuVs7.tif">
	
		<image style="overflow:visible;" width="440" height="464" id="Layer_0_2_" xlink:href="7FB165D367A0A069.png"  transform="matrix(0.5 0 0 0.5 90.2803 222.6439)">
	</image>
</g>
</svg>
