<?xml version="1.0" encoding="utf-8"?>
<!-- Generator: Adobe Illustrator 24.0.3, SVG Export Plug-In . SVG Version: 6.00 Build 0)  -->
<svg version="1.1" id="Capa_1" xmlns="http://www.w3.org/2000/svg" xmlns:xlink="http://www.w3.org/1999/xlink" x="0px" y="0px"
	 viewBox="0 0 54 54" style="enable-background:new 0 0 54 54;" xml:space="preserve">
<style type="text/css">
	.st0{fill:#FFA3A1;}
	.st1{fill:#FFFFFF;}
</style>
<g>
	<g>
		<path class="st0" d="M27,1L27,1c14.4,0,26,11.6,26,26l0,0c0,14.4-11.6,26-26,26l0,0C12.6,53,1,41.4,1,27l0,0C1,12.6,12.6,1,27,1z"
			/>
		<path class="st0" d="M27,54C12.1,54,0,41.9,0,27S12.1,0,27,0s27,12.1,27,27S41.9,54,27,54z M27,2C13.2,2,2,13.2,2,27
			s11.2,25,25,25s25-11.2,25-25S40.8,2,27,2z"/>
	</g>
	<path class="st1" d="M31.7,40c-0.3,0-0.5-0.1-0.7-0.3L19.5,28.2c-0.7-0.7-0.7-1.8,0-2.4L31,14.3c0.4-0.4,1-0.4,1.4,0s0.4,1,0,1.4
		L21.1,27l11.3,11.3c0.4,0.4,0.4,1,0,1.4C32.2,39.9,32,40,31.7,40z"/>
</g>
</svg>
